<svg xmlns="http://www.w3.org/2000/svg" viewBox="0 0 32 32" width="32" height="32">
  <defs>
    <linearGradient id="grad" x1="0%" y1="100%" x2="100%" y2="0%">
      <stop offset="0%" stop-color="#8b5cf6" />
      <stop offset="50%" stop-color="#ec4899" />
      <stop offset="100%" stop-color="#f97316" />
    </linearGradient>
  </defs>
  <path d="M16 2C16 2 24 9 24 16C24 22 19.5 26 16 26C12.5 26 8 22 8 16C8 9 16 2 16 2Z" fill="url(#grad)" />
  <path d="M12 13C12 12.4477 12.4477 12 13 12H19C19.5523 12 20 12.4477 20 13V19C20 19.5523 19.5523 20 19 20H13C12.4477 20 12 19.5523 12 19V13Z" fill="#ffffff" />
  <path d="M14 14.5H18M14 16.5H18M14 18.5H16" stroke="url(#grad)" stroke-width="1.2" stroke-linecap="round" />
</svg>
